<mxfile host="app.diagrams.net" agent="Mozilla/5.0 (Windows NT 10.0; Win64; x64) AppleWebKit/537.36 (KHTML, like Gecko) Chrome/141.0.0.0 Safari/537.36" version="28.2.8">
  <diagram name="Страница — 1" id="VemFxhsq8VWPLF5NFihN">
    <mxGraphModel dx="2610" dy="2150" grid="1" gridSize="10" guides="1" tooltips="1" connect="1" arrows="1" fold="1" page="1" pageScale="1" pageWidth="827" pageHeight="1169" math="0" shadow="0">
      <root>
        <mxCell id="0" />
        <mxCell id="1" parent="0" />
        <mxCell id="x9gaep2M6UIOER8qvIOI-1" value="&lt;div&gt;Администратор&lt;/div&gt;" style="shape=umlActor;verticalLabelPosition=bottom;verticalAlign=top;html=1;outlineConnect=0;" vertex="1" parent="1">
          <mxGeometry x="150" y="190" width="30" height="60" as="geometry" />
        </mxCell>
        <mxCell id="x9gaep2M6UIOER8qvIOI-5" value="&lt;div&gt;МОЛ&lt;/div&gt;" style="shape=umlActor;verticalLabelPosition=bottom;verticalAlign=top;html=1;outlineConnect=0;" vertex="1" parent="1">
          <mxGeometry x="440" y="-230" width="30" height="60" as="geometry" />
        </mxCell>
        <mxCell id="x9gaep2M6UIOER8qvIOI-9" value="" style="endArrow=none;html=1;rounded=0;entryX=0.5;entryY=1;entryDx=0;entryDy=0;" edge="1" parent="1" target="x9gaep2M6UIOER8qvIOI-10">
          <mxGeometry width="50" height="50" relative="1" as="geometry">
            <mxPoint x="140" y="190" as="sourcePoint" />
            <mxPoint x="170" y="120" as="targetPoint" />
          </mxGeometry>
        </mxCell>
        <mxCell id="x9gaep2M6UIOER8qvIOI-10" value="Категории имущества" style="ellipse;whiteSpace=wrap;html=1;" vertex="1" parent="1">
          <mxGeometry x="-10" y="120" width="100" height="60" as="geometry" />
        </mxCell>
        <mxCell id="x9gaep2M6UIOER8qvIOI-14" value="" style="endArrow=classic;html=1;rounded=0;dashed=1;exitX=0.929;exitY=0.26;exitDx=0;exitDy=0;exitPerimeter=0;" edge="1" parent="1" source="x9gaep2M6UIOER8qvIOI-10" target="x9gaep2M6UIOER8qvIOI-16">
          <mxGeometry width="50" height="50" relative="1" as="geometry">
            <mxPoint x="210" y="90" as="sourcePoint" />
            <mxPoint x="260" y="40" as="targetPoint" />
          </mxGeometry>
        </mxCell>
        <mxCell id="x9gaep2M6UIOER8qvIOI-15" value="&amp;lt;&amp;lt;include&amp;gt;&amp;gt;" style="edgeLabel;html=1;align=center;verticalAlign=middle;resizable=0;points=[];" vertex="1" connectable="0" parent="x9gaep2M6UIOER8qvIOI-14">
          <mxGeometry x="-0.0346" relative="1" as="geometry">
            <mxPoint as="offset" />
          </mxGeometry>
        </mxCell>
        <mxCell id="x9gaep2M6UIOER8qvIOI-16" value="Добавлять" style="ellipse;whiteSpace=wrap;html=1;" vertex="1" parent="1">
          <mxGeometry x="-30" y="-60" width="90" height="60" as="geometry" />
        </mxCell>
        <mxCell id="x9gaep2M6UIOER8qvIOI-17" value="" style="endArrow=classic;html=1;rounded=0;dashed=1;" edge="1" parent="1" target="x9gaep2M6UIOER8qvIOI-19" source="x9gaep2M6UIOER8qvIOI-10">
          <mxGeometry width="50" height="50" relative="1" as="geometry">
            <mxPoint x="80" y="86" as="sourcePoint" />
            <mxPoint x="132" y="30" as="targetPoint" />
          </mxGeometry>
        </mxCell>
        <mxCell id="x9gaep2M6UIOER8qvIOI-18" value="&amp;lt;&amp;lt;include&amp;gt;&amp;gt;" style="edgeLabel;html=1;align=center;verticalAlign=middle;resizable=0;points=[];" vertex="1" connectable="0" parent="x9gaep2M6UIOER8qvIOI-17">
          <mxGeometry x="-0.0346" relative="1" as="geometry">
            <mxPoint as="offset" />
          </mxGeometry>
        </mxCell>
        <mxCell id="x9gaep2M6UIOER8qvIOI-19" value="Удалить" style="ellipse;whiteSpace=wrap;html=1;" vertex="1" parent="1">
          <mxGeometry x="-150" y="-40" width="90" height="60" as="geometry" />
        </mxCell>
        <mxCell id="x9gaep2M6UIOER8qvIOI-21" value="" style="endArrow=classic;html=1;rounded=0;dashed=1;" edge="1" parent="1" target="x9gaep2M6UIOER8qvIOI-23" source="x9gaep2M6UIOER8qvIOI-10">
          <mxGeometry width="50" height="50" relative="1" as="geometry">
            <mxPoint x="100.39999999999998" y="85.56000000000012" as="sourcePoint" />
            <mxPoint x="10" y="14.44" as="targetPoint" />
          </mxGeometry>
        </mxCell>
        <mxCell id="x9gaep2M6UIOER8qvIOI-22" value="&amp;lt;&amp;lt;include&amp;gt;&amp;gt;" style="edgeLabel;html=1;align=center;verticalAlign=middle;resizable=0;points=[];" vertex="1" connectable="0" parent="x9gaep2M6UIOER8qvIOI-21">
          <mxGeometry x="-0.0346" relative="1" as="geometry">
            <mxPoint as="offset" />
          </mxGeometry>
        </mxCell>
        <mxCell id="x9gaep2M6UIOER8qvIOI-23" value="Редактировать" style="ellipse;whiteSpace=wrap;html=1;" vertex="1" parent="1">
          <mxGeometry x="-220" y="19.999999999999996" width="90" height="60" as="geometry" />
        </mxCell>
        <mxCell id="x9gaep2M6UIOER8qvIOI-25" value="Ведение справочников подразделений" style="ellipse;whiteSpace=wrap;html=1;" vertex="1" parent="1">
          <mxGeometry x="-20" y="210" width="90" height="60" as="geometry" />
        </mxCell>
        <mxCell id="x9gaep2M6UIOER8qvIOI-26" value="" style="endArrow=none;html=1;rounded=0;entryX=0.933;entryY=0.267;entryDx=0;entryDy=0;entryPerimeter=0;" edge="1" parent="1" target="x9gaep2M6UIOER8qvIOI-25">
          <mxGeometry width="50" height="50" relative="1" as="geometry">
            <mxPoint x="140" y="220" as="sourcePoint" />
            <mxPoint x="350" y="130" as="targetPoint" />
          </mxGeometry>
        </mxCell>
        <mxCell id="x9gaep2M6UIOER8qvIOI-27" value="" style="endArrow=none;html=1;rounded=0;" edge="1" parent="1" source="x9gaep2M6UIOER8qvIOI-28">
          <mxGeometry width="50" height="50" relative="1" as="geometry">
            <mxPoint x="330" y="260" as="sourcePoint" />
            <mxPoint x="180" y="180" as="targetPoint" />
          </mxGeometry>
        </mxCell>
        <mxCell id="x9gaep2M6UIOER8qvIOI-28" value="Импорт данных в формате Excel" style="ellipse;whiteSpace=wrap;html=1;" vertex="1" parent="1">
          <mxGeometry x="190" y="-50" width="90" height="60" as="geometry" />
        </mxCell>
        <mxCell id="x9gaep2M6UIOER8qvIOI-30" value="Формирование отчётов в *.pdf" style="ellipse;whiteSpace=wrap;html=1;" vertex="1" parent="1">
          <mxGeometry x="80" y="-60" width="90" height="60" as="geometry" />
        </mxCell>
        <mxCell id="x9gaep2M6UIOER8qvIOI-31" value="Управление пользователями" style="ellipse;whiteSpace=wrap;html=1;" vertex="1" parent="1">
          <mxGeometry x="80" y="340" width="90" height="60" as="geometry" />
        </mxCell>
        <mxCell id="x9gaep2M6UIOER8qvIOI-32" value="" style="endArrow=none;html=1;rounded=0;exitX=0.5;exitY=1;exitDx=0;exitDy=0;" edge="1" parent="1" source="x9gaep2M6UIOER8qvIOI-30">
          <mxGeometry width="50" height="50" relative="1" as="geometry">
            <mxPoint x="330" y="240" as="sourcePoint" />
            <mxPoint x="160" y="170" as="targetPoint" />
          </mxGeometry>
        </mxCell>
        <mxCell id="x9gaep2M6UIOER8qvIOI-33" value="Выдача прав доступа" style="ellipse;whiteSpace=wrap;html=1;" vertex="1" parent="1">
          <mxGeometry x="290" y="150" width="90" height="60" as="geometry" />
        </mxCell>
        <mxCell id="x9gaep2M6UIOER8qvIOI-39" value="Авторизация" style="ellipse;whiteSpace=wrap;html=1;" vertex="1" parent="1">
          <mxGeometry x="330" y="-20" width="90" height="60" as="geometry" />
        </mxCell>
        <mxCell id="x9gaep2M6UIOER8qvIOI-40" value="" style="endArrow=none;html=1;rounded=0;" edge="1" parent="1" target="x9gaep2M6UIOER8qvIOI-39">
          <mxGeometry width="50" height="50" relative="1" as="geometry">
            <mxPoint x="190" y="190" as="sourcePoint" />
            <mxPoint x="380" y="130" as="targetPoint" />
          </mxGeometry>
        </mxCell>
        <mxCell id="x9gaep2M6UIOER8qvIOI-41" value="" style="endArrow=none;html=1;rounded=0;exitX=1;exitY=0;exitDx=0;exitDy=0;" edge="1" parent="1" source="x9gaep2M6UIOER8qvIOI-39" target="x9gaep2M6UIOER8qvIOI-5">
          <mxGeometry width="50" height="50" relative="1" as="geometry">
            <mxPoint x="330" y="180" as="sourcePoint" />
            <mxPoint x="380" y="130" as="targetPoint" />
          </mxGeometry>
        </mxCell>
        <mxCell id="x9gaep2M6UIOER8qvIOI-45" value="" style="endArrow=none;html=1;rounded=0;entryX=0;entryY=0.5;entryDx=0;entryDy=0;" edge="1" parent="1" source="x9gaep2M6UIOER8qvIOI-1" target="x9gaep2M6UIOER8qvIOI-33">
          <mxGeometry width="50" height="50" relative="1" as="geometry">
            <mxPoint x="480" y="180" as="sourcePoint" />
            <mxPoint x="530" y="130" as="targetPoint" />
          </mxGeometry>
        </mxCell>
        <mxCell id="x9gaep2M6UIOER8qvIOI-47" value="" style="endArrow=none;html=1;rounded=0;exitX=0.5;exitY=0;exitDx=0;exitDy=0;" edge="1" parent="1" source="x9gaep2M6UIOER8qvIOI-31">
          <mxGeometry width="50" height="50" relative="1" as="geometry">
            <mxPoint x="510" y="280" as="sourcePoint" />
            <mxPoint x="160" y="280" as="targetPoint" />
          </mxGeometry>
        </mxCell>
        <mxCell id="x9gaep2M6UIOER8qvIOI-49" value="" style="endArrow=classic;html=1;rounded=0;dashed=1;exitX=0;exitY=1;exitDx=0;exitDy=0;entryX=0.5;entryY=0;entryDx=0;entryDy=0;" edge="1" parent="1" source="x9gaep2M6UIOER8qvIOI-31" target="x9gaep2M6UIOER8qvIOI-56">
          <mxGeometry width="50" height="50" relative="1" as="geometry">
            <mxPoint x="290" y="630" as="sourcePoint" />
            <mxPoint x="40" y="500" as="targetPoint" />
          </mxGeometry>
        </mxCell>
        <mxCell id="x9gaep2M6UIOER8qvIOI-50" value="&amp;lt;&amp;lt;include&amp;gt;&amp;gt;" style="edgeLabel;html=1;align=center;verticalAlign=middle;resizable=0;points=[];" vertex="1" connectable="0" parent="x9gaep2M6UIOER8qvIOI-49">
          <mxGeometry x="-0.0346" relative="1" as="geometry">
            <mxPoint as="offset" />
          </mxGeometry>
        </mxCell>
        <mxCell id="x9gaep2M6UIOER8qvIOI-51" value="" style="endArrow=classic;html=1;rounded=0;dashed=1;entryX=0.436;entryY=0.053;entryDx=0;entryDy=0;entryPerimeter=0;" edge="1" parent="1" source="x9gaep2M6UIOER8qvIOI-31" target="x9gaep2M6UIOER8qvIOI-57">
          <mxGeometry width="50" height="50" relative="1" as="geometry">
            <mxPoint x="150" y="450" as="sourcePoint" />
            <mxPoint x="170" y="520" as="targetPoint" />
          </mxGeometry>
        </mxCell>
        <mxCell id="x9gaep2M6UIOER8qvIOI-52" value="&amp;lt;&amp;lt;include&amp;gt;&amp;gt;" style="edgeLabel;html=1;align=center;verticalAlign=middle;resizable=0;points=[];" vertex="1" connectable="0" parent="x9gaep2M6UIOER8qvIOI-51">
          <mxGeometry x="-0.0346" relative="1" as="geometry">
            <mxPoint as="offset" />
          </mxGeometry>
        </mxCell>
        <mxCell id="x9gaep2M6UIOER8qvIOI-56" value="Добавление" style="ellipse;whiteSpace=wrap;html=1;" vertex="1" parent="1">
          <mxGeometry x="-10" y="450" width="90" height="60" as="geometry" />
        </mxCell>
        <mxCell id="x9gaep2M6UIOER8qvIOI-57" value="Удаление" style="ellipse;whiteSpace=wrap;html=1;" vertex="1" parent="1">
          <mxGeometry x="140" y="450" width="90" height="60" as="geometry" />
        </mxCell>
        <mxCell id="x9gaep2M6UIOER8qvIOI-60" value="Просмотреть&lt;br&gt;данные своего подразделения" style="ellipse;whiteSpace=wrap;html=1;" vertex="1" parent="1">
          <mxGeometry x="380" y="-320" width="90" height="60" as="geometry" />
        </mxCell>
        <mxCell id="x9gaep2M6UIOER8qvIOI-61" value="" style="endArrow=none;html=1;rounded=0;" edge="1" parent="1" target="x9gaep2M6UIOER8qvIOI-60">
          <mxGeometry width="50" height="50" relative="1" as="geometry">
            <mxPoint x="450" y="-240" as="sourcePoint" />
            <mxPoint x="680" y="-110" as="targetPoint" />
          </mxGeometry>
        </mxCell>
        <mxCell id="x9gaep2M6UIOER8qvIOI-62" value="" style="endArrow=classic;html=1;rounded=0;entryX=0.444;entryY=0;entryDx=0;entryDy=0;entryPerimeter=0;dashed=1;exitX=0.552;exitY=0.977;exitDx=0;exitDy=0;exitPerimeter=0;" edge="1" parent="1" source="x9gaep2M6UIOER8qvIOI-64" target="x9gaep2M6UIOER8qvIOI-60">
          <mxGeometry width="50" height="50" relative="1" as="geometry">
            <mxPoint x="570" y="-230" as="sourcePoint" />
            <mxPoint x="640" y="-190" as="targetPoint" />
          </mxGeometry>
        </mxCell>
        <mxCell id="x9gaep2M6UIOER8qvIOI-63" value="&amp;lt;&amp;lt;extend&lt;span style=&quot;background-color: light-dark(#ffffff, var(--ge-dark-color, #121212)); color: light-dark(rgb(0, 0, 0), rgb(255, 255, 255));&quot;&gt;&amp;gt;&amp;gt;&lt;/span&gt;" style="edgeLabel;html=1;align=center;verticalAlign=middle;resizable=0;points=[];" vertex="1" connectable="0" parent="x9gaep2M6UIOER8qvIOI-62">
          <mxGeometry x="-0.0031" y="-1" relative="1" as="geometry">
            <mxPoint as="offset" />
          </mxGeometry>
        </mxCell>
        <mxCell id="x9gaep2M6UIOER8qvIOI-64" value="Редактировать" style="ellipse;whiteSpace=wrap;html=1;" vertex="1" parent="1">
          <mxGeometry x="350" y="-430" width="90" height="60" as="geometry" />
        </mxCell>
        <mxCell id="x9gaep2M6UIOER8qvIOI-66" value="Проведение инвентаризации" style="ellipse;whiteSpace=wrap;html=1;" vertex="1" parent="1">
          <mxGeometry x="520" y="-300" width="90" height="60" as="geometry" />
        </mxCell>
        <mxCell id="x9gaep2M6UIOER8qvIOI-67" value="" style="endArrow=none;html=1;rounded=0;entryX=0.046;entryY=0.661;entryDx=0;entryDy=0;entryPerimeter=0;" edge="1" parent="1" source="x9gaep2M6UIOER8qvIOI-5" target="x9gaep2M6UIOER8qvIOI-66">
          <mxGeometry width="50" height="50" relative="1" as="geometry">
            <mxPoint x="630" y="10" as="sourcePoint" />
            <mxPoint x="680" y="-40" as="targetPoint" />
          </mxGeometry>
        </mxCell>
        <mxCell id="x9gaep2M6UIOER8qvIOI-70" value="" style="endArrow=none;html=1;rounded=0;exitX=0.5;exitY=0;exitDx=0;exitDy=0;" edge="1" parent="1" source="x9gaep2M6UIOER8qvIOI-30" target="x9gaep2M6UIOER8qvIOI-71">
          <mxGeometry width="50" height="50" relative="1" as="geometry">
            <mxPoint x="400.00000000000006" y="430.0000000000001" as="sourcePoint" />
            <mxPoint x="230" y="-470" as="targetPoint" />
          </mxGeometry>
        </mxCell>
        <mxCell id="x9gaep2M6UIOER8qvIOI-71" value="&lt;div&gt;Сотрудник бухгалтерии&lt;/div&gt;" style="shape=umlActor;verticalLabelPosition=bottom;verticalAlign=top;html=1;outlineConnect=0;" vertex="1" parent="1">
          <mxGeometry x="140" y="-320" width="30" height="60" as="geometry" />
        </mxCell>
        <mxCell id="x9gaep2M6UIOER8qvIOI-74" value="" style="endArrow=none;html=1;rounded=0;" edge="1" parent="1" source="x9gaep2M6UIOER8qvIOI-39" target="x9gaep2M6UIOER8qvIOI-71">
          <mxGeometry width="50" height="50" relative="1" as="geometry">
            <mxPoint x="420" y="30" as="sourcePoint" />
            <mxPoint x="260" y="-440" as="targetPoint" />
          </mxGeometry>
        </mxCell>
        <mxCell id="x9gaep2M6UIOER8qvIOI-75" value="" style="endArrow=none;html=1;rounded=0;" edge="1" parent="1" source="x9gaep2M6UIOER8qvIOI-28" target="x9gaep2M6UIOER8qvIOI-5">
          <mxGeometry width="50" height="50" relative="1" as="geometry">
            <mxPoint x="460" y="210" as="sourcePoint" />
            <mxPoint x="560" y="-10" as="targetPoint" />
          </mxGeometry>
        </mxCell>
        <mxCell id="x9gaep2M6UIOER8qvIOI-77" value="" style="endArrow=none;html=1;rounded=0;exitX=0.628;exitY=0.017;exitDx=0;exitDy=0;exitPerimeter=0;" edge="1" parent="1" source="x9gaep2M6UIOER8qvIOI-28" target="x9gaep2M6UIOER8qvIOI-71">
          <mxGeometry width="50" height="50" relative="1" as="geometry">
            <mxPoint x="450" y="60" as="sourcePoint" />
            <mxPoint x="440" y="-40" as="targetPoint" />
          </mxGeometry>
        </mxCell>
        <mxCell id="x9gaep2M6UIOER8qvIOI-79" value="Просмотр и проверка данных по всем подразделениям" style="ellipse;whiteSpace=wrap;html=1;" vertex="1" parent="1">
          <mxGeometry x="180" y="-420" width="100" height="70" as="geometry" />
        </mxCell>
        <mxCell id="x9gaep2M6UIOER8qvIOI-80" value="" style="endArrow=none;html=1;rounded=0;entryX=0.5;entryY=1;entryDx=0;entryDy=0;" edge="1" parent="1" source="x9gaep2M6UIOER8qvIOI-71" target="x9gaep2M6UIOER8qvIOI-79">
          <mxGeometry width="50" height="50" relative="1" as="geometry">
            <mxPoint x="420" y="-120" as="sourcePoint" />
            <mxPoint x="230" y="-120" as="targetPoint" />
          </mxGeometry>
        </mxCell>
        <mxCell id="x9gaep2M6UIOER8qvIOI-81" value="Фильтрация" style="ellipse;whiteSpace=wrap;html=1;" vertex="1" parent="1">
          <mxGeometry x="-210" y="110" width="90" height="60" as="geometry" />
        </mxCell>
        <mxCell id="x9gaep2M6UIOER8qvIOI-82" value="" style="endArrow=classic;html=1;rounded=0;dashed=1;entryX=1;entryY=0.5;entryDx=0;entryDy=0;exitX=0;exitY=0.5;exitDx=0;exitDy=0;" edge="1" parent="1" source="x9gaep2M6UIOER8qvIOI-10" target="x9gaep2M6UIOER8qvIOI-81">
          <mxGeometry width="50" height="50" relative="1" as="geometry">
            <mxPoint x="147" y="96" as="sourcePoint" />
            <mxPoint x="90" y="40" as="targetPoint" />
          </mxGeometry>
        </mxCell>
        <mxCell id="x9gaep2M6UIOER8qvIOI-83" value="&amp;lt;&amp;lt;include&amp;gt;&amp;gt;" style="edgeLabel;html=1;align=center;verticalAlign=middle;resizable=0;points=[];" vertex="1" connectable="0" parent="x9gaep2M6UIOER8qvIOI-82">
          <mxGeometry x="-0.0346" relative="1" as="geometry">
            <mxPoint as="offset" />
          </mxGeometry>
        </mxCell>
        <mxCell id="x9gaep2M6UIOER8qvIOI-88" value="" style="endArrow=none;html=1;rounded=0;exitX=0.949;exitY=0.31;exitDx=0;exitDy=0;exitPerimeter=0;" edge="1" parent="1" source="x9gaep2M6UIOER8qvIOI-30" target="x9gaep2M6UIOER8qvIOI-5">
          <mxGeometry width="50" height="50" relative="1" as="geometry">
            <mxPoint x="390" y="100" as="sourcePoint" />
            <mxPoint x="480" y="-430" as="targetPoint" />
          </mxGeometry>
        </mxCell>
      </root>
    </mxGraphModel>
  </diagram>
</mxfile>
